<?xml version="1.0" encoding="UTF-8" standalone="no"?>
<svg
   xmlns:dc="http://purl.org/dc/elements/1.1/"
   xmlns:cc="http://creativecommons.org/ns#"
   xmlns:rdf="http://www.w3.org/1999/02/22-rdf-syntax-ns#"
   xmlns:svg="http://www.w3.org/2000/svg"
   xmlns="http://www.w3.org/2000/svg"
   xmlns:sodipodi="http://sodipodi.sourceforge.net/DTD/sodipodi-0.dtd"
   xmlns:inkscape="http://www.inkscape.org/namespaces/inkscape"
   version="1.1"
   id="svg2"
   xml:space="preserve"
   width="801.70135"
   height="1130.52"
   viewBox="0 0 801.70135 1130.52"
   sodipodi:docname="logo.ai"><metadata
     id="metadata8"><rdf:RDF><cc:Work
         rdf:about=""><dc:format>image/svg+xml</dc:format><dc:type
           rdf:resource="http://purl.org/dc/dcmitype/StillImage" /></cc:Work></rdf:RDF></metadata><defs
     id="defs6"><clipPath
       clipPathUnits="userSpaceOnUse"
       id="clipPath18"><path
         d="M 0,847.89 H 601.276 V 0 H 0 Z"
         id="path16" /></clipPath><linearGradient
       x1="0"
       y1="0"
       x2="1"
       y2="0"
       gradientUnits="userSpaceOnUse"
       gradientTransform="matrix(69.102539,43.419029,43.419029,-69.102539,217.62009,368.83936)"
       spreadMethod="pad"
       id="linearGradient52"><stop
         style="stop-opacity:1;stop-color:#da7f1a"
         offset="0"
         id="stop36" /><stop
         style="stop-opacity:1;stop-color:#da7f1a"
         offset="0.0322581"
         id="stop38" /><stop
         style="stop-opacity:1;stop-color:#fba918"
         offset="0.18919366"
         id="stop40" /><stop
         style="stop-opacity:1;stop-color:#fba918"
         offset="0.241935"
         id="stop42" /><stop
         style="stop-opacity:1;stop-color:#fff8a2"
         offset="0.36467283"
         id="stop44" /><stop
         style="stop-opacity:1;stop-color:#fff8a2"
         offset="0.379367"
         id="stop46" /><stop
         style="stop-opacity:1;stop-color:#fba918"
         offset="0.50405996"
         id="stop48" /><stop
         style="stop-opacity:1;stop-color:#fba918"
         offset="1"
         id="stop50" /></linearGradient><linearGradient
       x1="0"
       y1="0"
       x2="1"
       y2="0"
       gradientUnits="userSpaceOnUse"
       gradientTransform="matrix(69.102539,43.419029,43.419029,-69.102539,210.15083,380.72687)"
       spreadMethod="pad"
       id="linearGradient84"><stop
         style="stop-opacity:1;stop-color:#da7f1a"
         offset="0"
         id="stop68" /><stop
         style="stop-opacity:1;stop-color:#da7f1a"
         offset="0.0322581"
         id="stop70" /><stop
         style="stop-opacity:1;stop-color:#fba918"
         offset="0.18919366"
         id="stop72" /><stop
         style="stop-opacity:1;stop-color:#fba918"
         offset="0.241935"
         id="stop74" /><stop
         style="stop-opacity:1;stop-color:#fff8a2"
         offset="0.36467283"
         id="stop76" /><stop
         style="stop-opacity:1;stop-color:#fff8a2"
         offset="0.379367"
         id="stop78" /><stop
         style="stop-opacity:1;stop-color:#fba918"
         offset="0.50405996"
         id="stop80" /><stop
         style="stop-opacity:1;stop-color:#fba918"
         offset="1"
         id="stop82" /></linearGradient><clipPath
       clipPathUnits="userSpaceOnUse"
       id="clipPath94"><path
         d="M 0,847.89 H 601.276 V 0 H 0 Z"
         id="path92" /></clipPath><linearGradient
       x1="0"
       y1="0"
       x2="1"
       y2="0"
       gradientUnits="userSpaceOnUse"
       gradientTransform="matrix(51.72377,38.870014,38.870014,-51.72377,203.5683,367.35559)"
       spreadMethod="pad"
       id="linearGradient126"><stop
         style="stop-opacity:1;stop-color:#da7f1a"
         offset="0"
         id="stop112" /><stop
         style="stop-opacity:1;stop-color:#da7f1a"
         offset="0.11828"
         id="stop114" /><stop
         style="stop-opacity:1;stop-color:#fba918"
         offset="0.311828"
         id="stop116" /><stop
         style="stop-opacity:1;stop-color:#fba918"
         offset="0.40497186"
         id="stop118" /><stop
         style="stop-opacity:1;stop-color:#fff8a2"
         offset="0.653561"
         id="stop120" /><stop
         style="stop-opacity:1;stop-color:#fba918"
         offset="0.79628413"
         id="stop122" /><stop
         style="stop-opacity:1;stop-color:#fba918"
         offset="1"
         id="stop124" /></linearGradient><clipPath
       clipPathUnits="userSpaceOnUse"
       id="clipPath136"><path
         d="M 0,847.89 H 601.276 V 0 H 0 Z"
         id="path134" /></clipPath><linearGradient
       x1="0"
       y1="0"
       x2="1"
       y2="0"
       gradientUnits="userSpaceOnUse"
       gradientTransform="matrix(56.32761,34.031704,34.031704,-56.32761,202.29092,397.59637)"
       spreadMethod="pad"
       id="linearGradient172"><stop
         style="stop-opacity:1;stop-color:#0066b2"
         offset="0"
         id="stop154" /><stop
         style="stop-opacity:1;stop-color:#0066b2"
         offset="0.0322581"
         id="stop156" /><stop
         style="stop-opacity:1;stop-color:#84d4f6"
         offset="0.18919366"
         id="stop158" /><stop
         style="stop-opacity:1;stop-color:#84d4f6"
         offset="0.241935"
         id="stop160" /><stop
         style="stop-opacity:1;stop-color:#aee0f9"
         offset="0.36467283"
         id="stop162" /><stop
         style="stop-opacity:1;stop-color:#aee0f9"
         offset="0.379367"
         id="stop164" /><stop
         style="stop-opacity:1;stop-color:#4d63ae"
         offset="0.63287802"
         id="stop166" /><stop
         style="stop-opacity:1;stop-color:#4d63ae"
         offset="1"
         id="stop168" /><stop
         style="stop-opacity:1;stop-color:#4d63ae"
         offset="1"
         id="stop170" /></linearGradient><linearGradient
       x1="0"
       y1="0"
       x2="1"
       y2="0"
       gradientUnits="userSpaceOnUse"
       gradientTransform="matrix(69.102539,43.419029,43.419029,-69.102539,211.72055,378.22861)"
       spreadMethod="pad"
       id="linearGradient204"><stop
         style="stop-opacity:1;stop-color:#da7f1a"
         offset="0"
         id="stop188" /><stop
         style="stop-opacity:1;stop-color:#da7f1a"
         offset="0.0322581"
         id="stop190" /><stop
         style="stop-opacity:1;stop-color:#fba918"
         offset="0.18919366"
         id="stop192" /><stop
         style="stop-opacity:1;stop-color:#fba918"
         offset="0.241935"
         id="stop194" /><stop
         style="stop-opacity:1;stop-color:#fff8a2"
         offset="0.36467283"
         id="stop196" /><stop
         style="stop-opacity:1;stop-color:#fff8a2"
         offset="0.379367"
         id="stop198" /><stop
         style="stop-opacity:1;stop-color:#fba918"
         offset="0.50405996"
         id="stop200" /><stop
         style="stop-opacity:1;stop-color:#fba918"
         offset="1"
         id="stop202" /></linearGradient><clipPath
       clipPathUnits="userSpaceOnUse"
       id="clipPath214"><path
         d="M 0,847.89 H 601.276 V 0 H 0 Z"
         id="path212" /></clipPath><linearGradient
       x1="0"
       y1="0"
       x2="1"
       y2="0"
       gradientUnits="userSpaceOnUse"
       gradientTransform="matrix(69.102539,43.419029,43.419029,-69.102539,183.58121,423.01315)"
       spreadMethod="pad"
       id="linearGradient248"><stop
         style="stop-opacity:1;stop-color:#da7f1a"
         offset="0"
         id="stop232" /><stop
         style="stop-opacity:1;stop-color:#da7f1a"
         offset="0.0322581"
         id="stop234" /><stop
         style="stop-opacity:1;stop-color:#fba918"
         offset="0.18919366"
         id="stop236" /><stop
         style="stop-opacity:1;stop-color:#fba918"
         offset="0.241935"
         id="stop238" /><stop
         style="stop-opacity:1;stop-color:#fff8a2"
         offset="0.36467283"
         id="stop240" /><stop
         style="stop-opacity:1;stop-color:#fff8a2"
         offset="0.379367"
         id="stop242" /><stop
         style="stop-opacity:1;stop-color:#fba918"
         offset="0.50405996"
         id="stop244" /><stop
         style="stop-opacity:1;stop-color:#fba918"
         offset="1"
         id="stop246" /></linearGradient><linearGradient
       x1="0"
       y1="0"
       x2="1"
       y2="0"
       gradientUnits="userSpaceOnUse"
       gradientTransform="matrix(51.72377,38.870014,38.870014,-51.72377,171.90872,409.48453)"
       spreadMethod="pad"
       id="linearGradient278"><stop
         style="stop-opacity:1;stop-color:#da7f1a"
         offset="0"
         id="stop264" /><stop
         style="stop-opacity:1;stop-color:#da7f1a"
         offset="0.11828"
         id="stop266" /><stop
         style="stop-opacity:1;stop-color:#fba918"
         offset="0.311828"
         id="stop268" /><stop
         style="stop-opacity:1;stop-color:#fba918"
         offset="0.40497186"
         id="stop270" /><stop
         style="stop-opacity:1;stop-color:#fff8a2"
         offset="0.653561"
         id="stop272" /><stop
         style="stop-opacity:1;stop-color:#fba918"
         offset="0.79628413"
         id="stop274" /><stop
         style="stop-opacity:1;stop-color:#fba918"
         offset="1"
         id="stop276" /></linearGradient><clipPath
       clipPathUnits="userSpaceOnUse"
       id="clipPath288"><path
         d="M 0,847.89 H 601.276 V 0 H 0 Z"
         id="path286" /></clipPath><linearGradient
       x1="0"
       y1="0"
       x2="1"
       y2="0"
       gradientUnits="userSpaceOnUse"
       gradientTransform="matrix(69.102539,43.419029,43.419029,-69.102539,183.63316,422.93045)"
       spreadMethod="pad"
       id="linearGradient322"><stop
         style="stop-opacity:1;stop-color:#da7f1a"
         offset="0"
         id="stop306" /><stop
         style="stop-opacity:1;stop-color:#da7f1a"
         offset="0.0322581"
         id="stop308" /><stop
         style="stop-opacity:1;stop-color:#fba918"
         offset="0.18919366"
         id="stop310" /><stop
         style="stop-opacity:1;stop-color:#fba918"
         offset="0.241935"
         id="stop312" /><stop
         style="stop-opacity:1;stop-color:#fff8a2"
         offset="0.36467283"
         id="stop314" /><stop
         style="stop-opacity:1;stop-color:#fff8a2"
         offset="0.379367"
         id="stop316" /><stop
         style="stop-opacity:1;stop-color:#fba918"
         offset="0.50405996"
         id="stop318" /><stop
         style="stop-opacity:1;stop-color:#fba918"
         offset="1"
         id="stop320" /></linearGradient><linearGradient
       x1="0"
       y1="0"
       x2="1"
       y2="0"
       gradientUnits="userSpaceOnUse"
       gradientTransform="matrix(51.72377,38.870014,38.870014,-51.72377,171.91974,409.46988)"
       spreadMethod="pad"
       id="linearGradient352"><stop
         style="stop-opacity:1;stop-color:#da7f1a"
         offset="0"
         id="stop338" /><stop
         style="stop-opacity:1;stop-color:#da7f1a"
         offset="0.11828"
         id="stop340" /><stop
         style="stop-opacity:1;stop-color:#fba918"
         offset="0.311828"
         id="stop342" /><stop
         style="stop-opacity:1;stop-color:#fba918"
         offset="0.40497186"
         id="stop344" /><stop
         style="stop-opacity:1;stop-color:#fff8a2"
         offset="0.653561"
         id="stop346" /><stop
         style="stop-opacity:1;stop-color:#fba918"
         offset="0.79628413"
         id="stop348" /><stop
         style="stop-opacity:1;stop-color:#fba918"
         offset="1"
         id="stop350" /></linearGradient><linearGradient
       x1="0"
       y1="0"
       x2="1"
       y2="0"
       gradientUnits="userSpaceOnUse"
       gradientTransform="matrix(107.29401,53.160881,53.160881,-107.29401,175.22827,414.36575)"
       spreadMethod="pad"
       id="linearGradient386"><stop
         style="stop-opacity:1;stop-color:#0066b2"
         offset="0"
         id="stop368" /><stop
         style="stop-opacity:1;stop-color:#0066b2"
         offset="0.0322581"
         id="stop370" /><stop
         style="stop-opacity:1;stop-color:#84d4f6"
         offset="0.18919366"
         id="stop372" /><stop
         style="stop-opacity:1;stop-color:#84d4f6"
         offset="0.241935"
         id="stop374" /><stop
         style="stop-opacity:1;stop-color:#aee0f9"
         offset="0.36467283"
         id="stop376" /><stop
         style="stop-opacity:1;stop-color:#aee0f9"
         offset="0.379367"
         id="stop378" /><stop
         style="stop-opacity:1;stop-color:#4d63ae"
         offset="0.63287802"
         id="stop380" /><stop
         style="stop-opacity:1;stop-color:#4d63ae"
         offset="1"
         id="stop382" /><stop
         style="stop-opacity:1;stop-color:#4d63ae"
         offset="1"
         id="stop384" /></linearGradient><clipPath
       clipPathUnits="userSpaceOnUse"
       id="clipPath396"><path
         d="M 0,847.89 H 601.276 V 0 H 0 Z"
         id="path394" /></clipPath><linearGradient
       x1="0"
       y1="0"
       x2="1"
       y2="0"
       gradientUnits="userSpaceOnUse"
       gradientTransform="matrix(59.523796,42.640907,42.640907,-59.523796,215.19952,363.00436)"
       spreadMethod="pad"
       id="linearGradient444"><stop
         style="stop-opacity:1;stop-color:#0066b2"
         offset="0"
         id="stop426" /><stop
         style="stop-opacity:1;stop-color:#0066b2"
         offset="0.0322581"
         id="stop428" /><stop
         style="stop-opacity:1;stop-color:#84d4f6"
         offset="0.31583972"
         id="stop430" /><stop
         style="stop-opacity:1;stop-color:#84d4f6"
         offset="0.411143"
         id="stop432" /><stop
         style="stop-opacity:1;stop-color:#aee0f9"
         offset="0.58156686"
         id="stop434" /><stop
         style="stop-opacity:1;stop-color:#aee0f9"
         offset="0.60197"
         id="stop436" /><stop
         style="stop-opacity:1;stop-color:#4d63ae"
         offset="0.76455399"
         id="stop438" /><stop
         style="stop-opacity:1;stop-color:#4d63ae"
         offset="1"
         id="stop440" /><stop
         style="stop-opacity:1;stop-color:#4d63ae"
         offset="1"
         id="stop442" /></linearGradient><clipPath
       clipPathUnits="userSpaceOnUse"
       id="clipPath454"><path
         d="M 0,847.89 H 601.276 V 0 H 0 Z"
         id="path452" /></clipPath></defs><sodipodi:namedview
     pagecolor="#ffffff"
     bordercolor="#666666"
     borderopacity="1"
     objecttolerance="10"
     gridtolerance="10"
     guidetolerance="10"
     inkscape:pageopacity="0"
     inkscape:pageshadow="2"
     inkscape:window-width="640"
     inkscape:window-height="480"
     id="namedview4" /><g
     id="g10"
     inkscape:groupmode="layer"
     inkscape:label="logo"
     transform="matrix(1.3333333,0,0,-1.3333333,0,1130.52)"><g
       id="g12"><g
         id="g14"
         clip-path="url(#clipPath18)"><g
           id="g20"
           transform="translate(443.2139,423.7469)"><path
             d="m 0,0 c 0,-78.503 -63.639,-142.143 -142.143,-142.143 -78.503,0 -142.142,63.64 -142.142,142.143 0,78.503 63.639,142.143 142.142,142.143 C -63.639,142.143 0,78.503 0,0"
             style="fill:#0e1028;fill-opacity:1;fill-rule:nonzero;stroke:none"
             id="path22" /></g></g></g><g
       id="g24"><g
         id="g26"><g
           id="g32"><g
             id="g34"><path
               d="m 205.527,360.858 1.069,0.412 -0.428,1.017 z"
               style="fill:url(#linearGradient52);stroke:none"
               id="path54" /></g></g></g></g><g
       id="g56"><g
         id="g58"><g
           id="g64"><g
             id="g66"><path
               d="m 200.418,372.943 -0.201,0.483 v 0.009 l -0.906,2.15 z"
               style="fill:url(#linearGradient84);stroke:none"
               id="path86" /></g></g></g></g><g
       id="g88"><g
         id="g90"
         clip-path="url(#clipPath94)"><g
           id="g96"
           transform="translate(189.2256,402.7357)"><path
             d="m 0,0 c -2.522,6.051 1.401,23.988 14.56,32.41 4.715,3.016 11.283,6.673 17.426,11.283 -0.014,0.039 -0.022,0.078 -0.036,0.119 l 0.506,0.403 -0.416,0.875 -6.103,2.753 -8.875,-1.78 L 1.87,30.758 -4.473,16.683 1.683,-7.088 8.342,-19.921 c 0,0 -0.001,0.004 -0.001,0.019 z"
             style="fill:#ffffff;fill-opacity:1;fill-rule:nonzero;stroke:none"
             id="path98" /></g></g></g><g
       id="g100"><g
         id="g102"><g
           id="g108"><g
             id="g110"><path
               d="m 202.771,367.319 c 0.009,-0.013 0.012,-0.027 0.017,-0.039 v 0 l 2.7,-6.436 -5.07,12.099 z"
               style="fill:url(#linearGradient126);stroke:none"
               id="path128" /></g></g></g></g><g
       id="g130"><g
         id="g132"
         clip-path="url(#clipPath136)"><g
           id="g138"
           transform="translate(202.3203,391.3011)"><path
             d="m 0,0 c 0.622,1.456 1.441,5.733 2.382,6.839 0.942,1.104 4.918,6.006 5.809,6.382 0.889,0.373 6.402,7.474 7.362,8.247 0.956,0.77 5.754,11.115 6.122,11.437 0.368,0.319 -0.371,18.661 -0.371,18.661 l -1.883,3.958 c -0.175,-0.133 -0.353,-0.264 -0.529,-0.397 0.432,-1.17 0.789,-2.337 1.062,-3.496 0.222,-0.933 0.393,-1.863 0.512,-2.793 C 21.8,38.482 16.847,28.577 5.964,19.363 -9.063,6.646 -4.94,-7.865 -4.754,-8.468 c 0,-0.014 0.002,-0.018 0.002,-0.018 0,0 1.786,0.684 2.544,1.633 C -1.45,-5.902 -0.621,-1.458 0,0"
             style="fill:#ffffff;fill-opacity:1;fill-rule:nonzero;stroke:none"
             id="path140" /></g></g></g><g
       id="g142"><g
         id="g144"><g
           id="g150"><g
             id="g152"><path
               d="m 221.742,446.825 c -0.176,-0.133 -0.353,-0.264 -0.529,-0.397 v 0 c 0.431,-1.171 0.789,-2.337 1.062,-3.496 v 0 c 0.221,-0.933 0.392,-1.863 0.512,-2.793 v 0 c 1.333,-10.356 -3.62,-20.262 -14.502,-29.474 v 0 c -15.028,-12.717 -10.904,-27.229 -10.718,-27.832 v 0 c 0,-0.014 0.001,-0.018 0.001,-0.018 v 0 l 8.601,-20.528 0.259,0.579 -2.021,9.097 c 0,0 -0.527,1.201 -0.487,3.772 v 0 c 0.036,2.44 0.579,6.109 2.567,11.161 v 0 0.009 c 0.399,0.991 0.844,2.033 1.354,3.135 v 0 c 6.363,12.975 19.866,18.161 21.375,32.744 v 0 c 0.948,9.165 -0.93,15.6 -2.914,19.639 v 0 c -0.451,0.922 -0.906,1.714 -1.338,2.391 v 0 c -1.069,1.676 -1.936,2.566 -2.189,2.812 v 0 c -0.343,-0.271 -0.686,-0.536 -1.033,-0.801"
               style="fill:url(#linearGradient172);stroke:none"
               id="path174" /></g></g></g></g><g
       id="g176"><g
         id="g178"><g
           id="g184"><g
             id="g186"><path
               d="m 199.311,375.585 0.906,-2.15 v -0.009 l 0.201,-0.483 5.07,-12.099 0.039,0.014 0.641,1.429 -8.6,20.528 z"
               style="fill:url(#linearGradient204);stroke:none"
               id="path206" /></g></g></g></g><g
       id="g208"><g
         id="g210"
         clip-path="url(#clipPath214)"><g
           id="g216"
           transform="translate(199.3115,375.5853)"><path
             d="m 0,0 0.905,-2.15 v -0.009 l 0.202,-0.484 5.069,-12.098 0.039,0.013 0.642,1.429 -8.601,20.528 z"
             style="fill:#1868b3;fill-opacity:1;fill-rule:nonzero;stroke:none"
             id="path218" /></g></g></g><g
       id="g220"><g
         id="g222"><g
           id="g228"><g
             id="g230"><path
               d="m 221.682,446.951 0.059,-0.125 c 0.347,0.263 0.691,0.529 1.034,0.8 v 0 c -0.046,0.044 -0.11,0.109 -0.11,0.109 v 0 z"
               style="fill:url(#linearGradient248);stroke:none"
               id="path250" /></g></g></g></g><g
       id="g252"><g
         id="g254"><g
           id="g260"><g
             id="g262"><path
               d="m 221.682,446.951 0.059,-0.125 c 0.347,0.263 0.691,0.529 1.034,0.8 v 0 c -0.046,0.044 -0.11,0.109 -0.11,0.109 v 0 z"
               style="fill:url(#linearGradient278);stroke:none"
               id="path280" /></g></g></g></g><g
       id="g282"><g
         id="g284"
         clip-path="url(#clipPath288)"><g
           id="g290"
           transform="translate(221.2119,446.4286)"><path
             d="M 0,0 C 0.177,0.133 0.354,0.263 0.529,0.397 L 0.47,0.522 -0.036,0.119 C -0.022,0.079 -0.015,0.04 0,0"
             style="fill:#ffffff;fill-opacity:1;fill-rule:nonzero;stroke:none"
             id="path292" /></g></g></g><g
       id="g294"><g
         id="g296"><g
           id="g302"><g
             id="g304"><path
               d="m 221.176,446.548 c 0.014,-0.041 0.021,-0.08 0.036,-0.119 v 0 c 0.176,0.132 0.354,0.263 0.529,0.397 v 0 l -0.059,0.125 z"
               style="fill:url(#linearGradient322);stroke:none"
               id="path324" /></g></g></g></g><g
       id="g326"><g
         id="g328"><g
           id="g334"><g
             id="g336"><path
               d="m 221.176,446.548 c 0.014,-0.041 0.021,-0.08 0.036,-0.119 v 0 c 0.176,0.132 0.354,0.263 0.529,0.397 v 0 l -0.059,0.125 z"
               style="fill:url(#linearGradient352);stroke:none"
               id="path354" /></g></g></g></g><g
       id="g356"><g
         id="g358"><g
           id="g364"><g
             id="g366"><path
               d="m 215.073,479.734 c -0.57,-5.453 3.559,-10.316 9.22,-10.864 v 0 c 2.283,-0.222 4.464,0.302 6.295,1.355 v 0 c -0.199,-0.255 -0.411,-0.512 -0.643,-0.771 v 0 h -0.005 c -0.248,-0.28 -0.519,-0.555 -0.808,-0.838 v 0 c -0.252,-0.246 -0.525,-0.496 -0.81,-0.746 v 0 l -0.013,-0.006 c -0.272,-0.243 -0.557,-0.479 -0.858,-0.723 v 0 c -0.42,-0.336 -0.867,-0.674 -1.336,-1.02 v 0 h -0.008 c -0.574,-0.416 -1.189,-0.834 -1.839,-1.264 v 0 c -0.016,-0.008 -0.022,-0.009 -0.022,-0.009 v 0 c -5.303,-3.468 -13.253,-7.366 -23.875,-12.283 v 0 C 173.349,440.062 182.218,416.358 183.238,413.96 v 0 l 16.073,-38.375 -1.743,7.23 c 0,0 -0.001,0.004 -0.001,0.018 v 0 l -8.341,19.903 c -2.523,6.05 1.401,23.988 14.56,32.409 v 0 c 4.715,3.017 11.282,6.674 17.427,11.283 v 0 c -0.016,0.04 1.517,1.243 1.562,1.198 v 0 c 6.291,4.964 11.91,10.995 14.275,18.487 v 0 c 4.14,13.076 -3.214,19.022 -5.447,20.48 v 0 c -1.47,1.095 -3.264,1.827 -5.25,2.019 v 0 c -0.35,0.034 -0.698,0.05 -1.043,0.05 v 0 c -5.225,0.001 -9.703,-3.815 -10.237,-8.928"
               style="fill:url(#linearGradient386);stroke:none"
               id="path388" /></g></g></g></g><g
       id="g390"><g
         id="g392"
         clip-path="url(#clipPath396)"><g
           id="g398"
           transform="translate(226.3022,442.4237)"><path
             d="m 0,0 c -0.75,-0.727 -1.867,-1.522 -3.517,-2.285 -0.118,0.931 -0.289,1.86 -0.511,2.794 -0.283,1.198 -0.609,2.284 -1.062,3.496 l 1.563,1.197 c 0,0 0.924,-0.833 2.19,-2.812 C -0.907,1.712 -0.45,0.922 0,0"
             style="fill:#5269a0;fill-opacity:1;fill-rule:nonzero;stroke:none"
             id="path400" /></g><g
           id="g402"
           transform="translate(200.3999,401.3168)"><path
             d="M 0,0 C -0.318,-0.568 -0.605,-1.132 -0.874,-1.687 L -4.806,8.162 C -5.634,6.56 -6.111,5.063 -6.096,3.759 l -4.457,10.628 c 0.726,2.466 1.756,5.03 3.121,7.526 l 4.491,-10.72 C -3.282,10.706 -3.593,10.227 -3.887,9.754 Z"
             style="fill:#5269a0;fill-opacity:1;fill-rule:nonzero;stroke:none"
             id="path404" /></g><g
           id="g406"
           transform="translate(209.293,411.5345)"><path
             d="m 0,0 c -0.329,-0.286 -0.667,-0.58 -1.009,-0.87 -0.048,-0.045 -0.098,-0.081 -0.14,-0.123 L -5.072,8.818 C -5.707,8.167 -6.351,7.51 -6.966,6.849 l -4.78,11.4 c 1.346,1.515 2.853,2.922 4.524,4.168 L -2.557,11.289 C -3.02,10.845 -3.486,10.381 -3.953,9.919 Z"
             style="fill:#5269a0;fill-opacity:1;fill-rule:nonzero;stroke:none"
             id="path408" /></g><g
           id="g410"
           transform="translate(218.9004,422.7455)"><path
             d="m 0,0 c -0.297,-0.515 -0.618,-1.015 -0.953,-1.518 l -3.399,8.53 C -4.901,6.552 -5.504,6.042 -6.165,5.483 l -4.139,9.89 c 1.588,0.962 3.263,1.987 4.986,3.075 L -1.496,9.32 C -1.678,9.18 -2.286,8.703 -3.185,7.969 Z"
             style="fill:#5269a0;fill-opacity:1;fill-rule:nonzero;stroke:none"
             id="path412" /></g></g></g><g
       id="g414"><g
         id="g416"><g
           id="g422"><g
             id="g424"><path
               d="m 215.187,384.206 c -9.302,-3.704 -13.718,-13.96 -9.889,-22.916 v 0 c 3.845,-8.964 14.494,-13.234 23.793,-9.538 v 0 c 7.226,2.868 11.519,9.692 11.278,16.798 v 0 l -0.002,0.034 c -0.002,0.008 0,0.017 -0.002,0.023 v 0 c 0.003,0.005 0.002,0.017 -0.001,0.022 v 0 c -0.024,0.112 -0.114,0.195 -0.222,0.22 v 0 l -0.007,0.005 c -0.011,0.001 -0.018,0 -0.018,0 v 0 c -0.036,0.005 -0.07,0.007 -0.104,0.002 v 0 c -0.113,-0.024 -0.202,-0.098 -0.231,-0.2 v 0 c -0.007,-0.017 -0.007,-0.041 -0.007,-0.063 v 0 c -0.002,-0.009 -0.005,-0.018 -0.004,-0.029 v 0 l 0.002,-0.002 c -0.619,-3.866 -3.251,-7.328 -7.279,-8.936 v 0 c -6.099,-2.417 -13.098,0.368 -15.626,6.259 v 0 c -2.529,5.885 0.387,12.627 6.496,15.045 v 0 c 4.502,1.792 9.486,0.751 12.809,-2.289 v 0 c 0,0 0.002,-0.012 0.018,-0.011 v 0 c 0.097,-0.087 0.193,-0.177 0.286,-0.274 v 0 c -0.142,0.099 -0.291,0.183 -0.441,0.26 v 0 c -0.022,-0.002 -0.023,0.009 -0.023,0.009 v 0 c -1.109,0.559 -2.476,0.66 -3.732,0.164 v 0 c -2.251,-0.901 -3.314,-3.377 -2.387,-5.546 v 0 c 0.934,-2.169 3.505,-3.204 5.758,-2.305 v 0 c 2.011,0.792 3.073,2.859 2.62,4.852 v 0 c -0.012,0.045 -0.021,0.083 -0.039,0.114 v 0 c -0.03,0.155 -0.079,0.305 -0.144,0.463 v 0 c -0.017,0.035 -0.027,0.077 -0.045,0.115 v 0 c -0.063,0.148 -0.133,0.293 -0.207,0.428 v 0 c -0.052,0.094 -0.11,0.18 -0.164,0.266 v 0 c -0.182,0.289 -0.372,0.565 -0.563,0.833 v 0 l -0.024,0.01 c -3.422,4.757 -9.062,7.521 -14.948,7.521 v 0 c -2.319,0 -4.675,-0.428 -6.951,-1.334"
               style="fill:url(#linearGradient444);stroke:none"
               id="path446" /></g></g></g></g><g
       id="g448"><g
         id="g450"
         clip-path="url(#clipPath454)"><g
           id="g456"
           transform="translate(233.1753,469.9457)"><path
             d="m 0,0 c -4.055,-4.203 -8.431,-5.069 -8.779,-5.179 0.647,0.441 1.251,0.867 1.819,1.294 l 0.006,-0.003 c 0.465,0.359 0.906,0.7 1.319,1.044 0.296,0.249 0.579,0.49 0.848,0.737 l 0.012,0.007 c 0.282,0.256 0.549,0.509 0.798,0.76 0.281,0.286 0.546,0.565 0.792,0.845 l 0.005,0.003 c 0.226,0.262 0.434,0.515 0.617,0.771 C 0.129,1.875 2.02,4.635 2.305,7.892 2.364,8.574 2.35,9.233 2.269,9.882 2.269,9.882 3.653,3.78 0,0"
             style="fill:#5269a0;fill-opacity:1;fill-rule:nonzero;stroke:none"
             id="path458" /></g><g
           id="g460"
           transform="translate(275.7632,479.535)"><path
             d="M 0,0 C 0,2.382 -1.38,3.577 -4.144,3.577 H -8.285 V -71.82 h 4.141 c 2.764,0 4.144,1.195 4.144,3.577 z m 12.997,-75.888 c -2.436,-2.103 -5.389,-3.154 -8.856,-3.154 H -8.285 v -25.109 H -24.941 V 10.731 H 4.141 c 3.467,0 6.42,-1.053 8.856,-3.158 C 15.433,5.471 16.652,2.943 16.652,0 v -68.243 c 0,-2.943 -1.219,-5.493 -3.655,-7.645"
             style="fill:#5198d3;fill-opacity:1;fill-rule:nonzero;stroke:none"
             id="path462" /></g><g
           id="g464"
           transform="translate(324.8662,375.3842)"><path
             d="M 0,0 V 64.663 H -8.285 V 0 H -24.937 V 114.882 H -8.285 V 71.816 H 0 v 43.066 H 16.653 V 0 Z"
             style="fill:#5198d3;fill-opacity:1;fill-rule:nonzero;stroke:none"
             id="path466" /></g><g
           id="g468"
           transform="translate(385.0986,377.559)"><path
             d="m 0,0 c -3.846,-1.45 -8.339,-2.175 -13.485,-2.175 -5.308,0 -9.748,0.725 -13.322,2.175 -4.983,1.821 -7.475,4.698 -7.475,8.625 v 93.351 c 0,3.927 2.492,6.848 7.475,8.764 3.738,1.311 8.175,1.967 13.322,1.967 5.089,0 9.587,-0.656 13.485,-1.967 4.875,-1.916 7.312,-4.837 7.312,-8.764 V 87.022 H -9.342 v 14.954 c 0,2.382 -1.38,3.577 -4.143,3.577 -2.761,0 -4.142,-1.195 -4.142,-3.577 V 8.625 c 0,-2.43 1.435,-3.646 4.305,-3.646 2.654,0 3.98,1.216 3.98,3.646 V 22.896 H 7.312 V 8.625 C 7.312,4.746 4.875,1.868 0,0"
             style="fill:#5198d3;fill-opacity:1;fill-rule:nonzero;stroke:none"
             id="path470" /></g><g
           id="g472"
           transform="translate(256.1836,358.3373)"><path
             d="M 0,0 H 5.372 L 2.737,7.952 H 2.65 Z m 6.038,-2.013 h -6.719 l -1.535,-4.6 H -5.199 L 1.289,11.59 H 4.127 L 10.556,-6.613 H 7.573 Z"
             style="fill:#ffffff;fill-opacity:1;fill-rule:nonzero;stroke:none"
             id="path474" /></g><g
           id="g476"
           transform="translate(280.1143,353.3871)"><path
             d="m 0,0 c 0.733,0 1.352,0.243 1.854,0.731 0.501,0.488 0.752,1.14 0.752,1.957 H 5.242 L 5.271,2.612 C 5.31,1.338 4.81,0.263 3.772,-0.613 2.734,-1.488 1.477,-1.926 0,-1.926 c -1.95,0 -3.444,0.572 -4.482,1.713 -1.038,1.142 -1.557,2.597 -1.557,4.363 v 1.864 c 0,1.766 0.519,3.225 1.557,4.375 1.038,1.15 2.527,1.725 4.468,1.725 1.583,0 2.869,-0.456 3.859,-1.369 C 4.834,9.833 5.314,8.651 5.286,7.201 L 5.242,7.126 H 2.606 c 0,0.907 -0.238,1.645 -0.716,2.212 -0.478,0.567 -1.113,0.851 -1.904,0.851 -1.12,0 -1.914,-0.393 -2.382,-1.178 C -2.865,8.226 -3.099,7.231 -3.099,6.028 V 4.16 c 0,-1.22 0.234,-2.218 0.703,-2.995 C -1.928,0.388 -1.129,0 0,0"
             style="fill:#ffffff;fill-opacity:1;fill-rule:nonzero;stroke:none"
             id="path478" /></g><g
           id="g480"
           transform="translate(298.3691,353.3871)"><path
             d="M 0,0 C 0.686,0 1.311,0.176 1.875,0.527 2.44,0.88 2.853,1.319 3.113,1.848 v 2.778 h -2.23 c -0.897,0 -1.595,-0.25 -2.092,-0.748 C -1.707,3.379 -1.955,2.77 -1.955,2.049 -1.955,1.437 -1.786,0.942 -1.448,0.565 -1.11,0.188 -0.627,0 0,0 M 3.548,-1.663 C 3.441,-1.354 3.354,-1.053 3.287,-0.757 3.22,-0.461 3.176,-0.163 3.157,0.138 2.723,-0.472 2.177,-0.967 1.521,-1.351 0.864,-1.733 0.135,-1.926 -0.666,-1.926 c -1.323,0 -2.358,0.361 -3.106,1.082 -0.749,0.721 -1.123,1.686 -1.123,2.894 0,1.292 0.51,2.306 1.528,3.045 1.019,0.737 2.45,1.106 4.294,1.106 H 3.113 V 7.58 c 0,0.819 -0.212,1.46 -0.636,1.919 -0.426,0.46 -1.029,0.69 -1.811,0.69 -0.705,0 -1.272,-0.207 -1.701,-0.622 C -1.465,9.153 -1.68,8.636 -1.68,8.015 l -2.795,0.012 -0.043,0.076 c -0.048,1.044 0.435,1.974 1.448,2.789 1.014,0.815 2.322,1.222 3.924,1.222 1.545,0 2.797,-0.393 3.757,-1.181 0.961,-0.787 1.442,-1.911 1.442,-3.37 V 1.287 c 0,-0.524 0.037,-1.031 0.109,-1.518 0.072,-0.488 0.19,-0.965 0.354,-1.432 z"
             style="fill:#ffffff;fill-opacity:1;fill-rule:nonzero;stroke:none"
             id="path482" /></g><g
           id="g484"
           transform="translate(316.0879,358.0629)"><path
             d="m 0,0 c 0,-1.426 0.236,-2.555 0.709,-3.389 0.474,-0.833 1.222,-1.25 2.245,-1.25 0.637,0 1.18,0.151 1.629,0.451 0.449,0.299 0.813,0.72 1.094,1.262 V 3.65 C 5.396,4.209 5.032,4.65 4.583,4.976 4.134,5.301 3.601,5.463 2.982,5.463 1.959,5.463 1.206,4.984 0.724,4.025 0.241,3.067 0,1.812 0,0.263 Z m -2.939,0.263 c 0,2.158 0.451,3.894 1.353,5.207 0.902,1.312 2.175,1.968 3.815,1.968 0.735,0 1.388,-0.141 1.963,-0.424 C 4.767,6.73 5.261,6.321 5.677,5.788 v 7.377 H 8.602 V -6.339 H 6.038 l -0.217,1.55 C 5.406,-5.381 4.896,-5.831 4.293,-6.139 3.689,-6.447 2.997,-6.602 2.216,-6.602 c -1.632,0 -2.9,0.601 -3.802,1.801 -0.902,1.2 -1.353,2.8 -1.353,4.801 z"
             style="fill:#ffffff;fill-opacity:1;fill-rule:nonzero;stroke:none"
             id="path486" /></g><g
           id="g488"
           transform="translate(339.3672,363.5765)"><path
             d="m 0,0 c -0.85,0 -1.53,-0.359 -2.042,-1.076 -0.512,-0.718 -0.796,-1.626 -0.854,-2.725 h 5.517 v 0.516 c 0,0.965 -0.223,1.754 -0.666,2.366 C 1.511,-0.307 0.859,0 0,0 m 0.333,-12.115 c -1.863,0 -3.354,0.558 -4.475,1.676 -1.12,1.116 -1.679,2.545 -1.679,4.288 v 1.975 c 0,1.767 0.548,3.226 1.643,4.375 1.096,1.151 2.489,1.726 4.178,1.726 1.776,0 3.143,-0.524 4.098,-1.57 0.956,-1.045 1.433,-2.452 1.433,-4.218 v -1.751 h -8.427 v -0.537 c 0,-1.167 0.296,-2.132 0.89,-2.895 0.594,-0.763 1.437,-1.143 2.527,-1.143 0.811,0 1.506,0.11 2.085,0.331 0.58,0.22 1.13,0.544 1.652,0.968 l 0.927,-1.575 C 4.691,-10.948 4.03,-11.345 3.2,-11.652 2.37,-11.961 1.414,-12.115 0.333,-12.115"
             style="fill:#ffffff;fill-opacity:1;fill-rule:nonzero;stroke:none"
             id="path490" /></g><g
           id="g492"
           transform="translate(356.1152,365.2513)"><path
             d="m 0,0 0.159,-1.838 c 0.425,0.667 0.966,1.182 1.622,1.544 0.657,0.363 1.424,0.544 2.303,0.544 0.859,0 1.598,-0.206 2.216,-0.619 0.617,-0.412 1.086,-1.039 1.404,-1.881 0.405,0.783 0.946,1.396 1.622,1.838 0.676,0.441 1.477,0.662 2.403,0.662 1.334,0 2.383,-0.473 3.151,-1.419 0.766,-0.946 1.15,-2.386 1.15,-4.319 v -8.039 h -2.939 v 8.051 c 0,1.383 -0.197,2.355 -0.594,2.913 -0.395,0.558 -0.979,0.837 -1.752,0.837 -0.666,0 -1.224,-0.218 -1.673,-0.656 C 8.624,-2.819 8.298,-3.4 8.095,-4.126 8.085,-4.059 8.09,-4.165 8.109,-4.444 c 0.02,-0.28 0.03,-0.482 0.03,-0.607 v -8.476 H 5.214 v 8.051 c 0,1.342 -0.203,2.302 -0.609,2.882 C 4.2,-2.015 3.611,-1.726 2.839,-1.726 2.221,-1.726 1.694,-1.873 1.26,-2.169 0.826,-2.465 0.487,-2.875 0.246,-3.4 V -13.527 H -2.679 V 0 Z"
             style="fill:#ffffff;fill-opacity:1;fill-rule:nonzero;stroke:none"
             id="path494" /></g><g
           id="g496"
           transform="translate(385.8535,356.3871)"><path
             d="M 0,0 0.217,-0.888 H 0.304 L 3.316,8.864 H 6.517 L 1.028,-6.764 c -0.367,-0.933 -0.864,-1.727 -1.492,-2.382 -0.627,-0.654 -1.53,-0.981 -2.707,-0.981 -0.242,0 -0.5,0.023 -0.775,0.069 -0.276,0.046 -0.548,0.098 -0.819,0.157 l 0.32,1.875 c 0.105,-0.017 0.251,-0.034 0.433,-0.05 0.184,-0.017 0.328,-0.026 0.435,-0.026 0.569,0 1.021,0.211 1.354,0.632 0.333,0.421 0.591,0.919 0.775,1.494 l 0.521,1.375 -4.837,13.465 h 3.186 z"
             style="fill:#ffffff;fill-opacity:1;fill-rule:nonzero;stroke:none"
             id="path498" /></g></g></g></g></svg>
